<mxfile host="app.diagrams.net" agent="Mozilla/5.0 (X11; Linux x86_64) AppleWebKit/537.36 (KHTML, like Gecko) Chrome/128.0.0.0 Safari/537.36" version="24.7.15">
  <diagram name="Page-1" id="F3fQAGKga9oMP5JmTagn">
    <mxGraphModel dx="1364" dy="793" grid="1" gridSize="10" guides="1" tooltips="1" connect="1" arrows="1" fold="1" page="1" pageScale="1" pageWidth="850" pageHeight="1100" math="0" shadow="0">
      <root>
        <mxCell id="0" />
        <mxCell id="1" parent="0" />
        <mxCell id="6XoJzIgcjdnXIeTt4XoX-53" style="edgeStyle=orthogonalEdgeStyle;rounded=0;orthogonalLoop=1;jettySize=auto;html=1;exitX=1;exitY=0.5;exitDx=0;exitDy=0;entryX=0;entryY=0.5;entryDx=0;entryDy=0;strokeWidth=5;endArrow=none;endFill=0;" parent="1" source="6XoJzIgcjdnXIeTt4XoX-1" target="6XoJzIgcjdnXIeTt4XoX-8" edge="1">
          <mxGeometry relative="1" as="geometry" />
        </mxCell>
        <mxCell id="6XoJzIgcjdnXIeTt4XoX-1" value="" style="ellipse;whiteSpace=wrap;html=1;aspect=fixed;strokeWidth=5;fontSize=18;fontStyle=1" parent="1" vertex="1">
          <mxGeometry x="760" y="215" width="190" height="190" as="geometry" />
        </mxCell>
        <mxCell id="6XoJzIgcjdnXIeTt4XoX-2" value="" style="endArrow=none;html=1;rounded=0;entryX=0;entryY=0;entryDx=0;entryDy=0;strokeWidth=5;fontSize=18;fontStyle=1" parent="1" target="6XoJzIgcjdnXIeTt4XoX-1" edge="1">
          <mxGeometry width="50" height="50" relative="1" as="geometry">
            <mxPoint x="720" y="180" as="sourcePoint" />
            <mxPoint x="920" y="370" as="targetPoint" />
          </mxGeometry>
        </mxCell>
        <mxCell id="6XoJzIgcjdnXIeTt4XoX-3" value="" style="endArrow=none;html=1;rounded=0;entryX=0.031;entryY=0.334;entryDx=0;entryDy=0;entryPerimeter=0;strokeWidth=5;fontSize=18;fontStyle=1" parent="1" source="6XoJzIgcjdnXIeTt4XoX-12" edge="1">
          <mxGeometry width="50" height="50" relative="1" as="geometry">
            <mxPoint x="600" y="200" as="sourcePoint" />
            <mxPoint x="759.9999999999999" y="298.46000000000004" as="targetPoint" />
          </mxGeometry>
        </mxCell>
        <mxCell id="6XoJzIgcjdnXIeTt4XoX-5" value="" style="endArrow=none;html=1;rounded=0;entryX=0;entryY=1;entryDx=0;entryDy=0;strokeWidth=5;fontSize=18;fontStyle=1" parent="1" source="6XoJzIgcjdnXIeTt4XoX-16" target="6XoJzIgcjdnXIeTt4XoX-1" edge="1">
          <mxGeometry width="50" height="50" relative="1" as="geometry">
            <mxPoint x="550" y="590" as="sourcePoint" />
            <mxPoint x="732" y="386" as="targetPoint" />
          </mxGeometry>
        </mxCell>
        <mxCell id="6XoJzIgcjdnXIeTt4XoX-6" value="" style="endArrow=none;html=1;rounded=0;entryX=0;entryY=0.5;entryDx=0;entryDy=0;strokeWidth=5;fontSize=24;fontStyle=1" parent="1" edge="1">
          <mxGeometry width="50" height="50" relative="1" as="geometry">
            <mxPoint x="670" y="319" as="sourcePoint" />
            <mxPoint x="760.0000000000005" y="319.09000000000003" as="targetPoint" />
          </mxGeometry>
        </mxCell>
        <mxCell id="6XoJzIgcjdnXIeTt4XoX-8" value="" style="rounded=1;whiteSpace=wrap;html=1;strokeWidth=5;fontSize=18;fontStyle=1;fillColor=#cdeb8b;strokeColor=#36393d;" parent="1" vertex="1">
          <mxGeometry x="1010" y="255" width="70" height="110" as="geometry" />
        </mxCell>
        <mxCell id="6XoJzIgcjdnXIeTt4XoX-10" value="w&lt;sub style=&quot;font-size: 24px;&quot;&gt;1&lt;/sub&gt;" style="rounded=0;whiteSpace=wrap;html=1;strokeWidth=5;fontSize=24;fontStyle=1;fillColor=#eeeeee;strokeColor=#36393d;" parent="1" vertex="1">
          <mxGeometry x="680" y="140" width="60" height="60" as="geometry" />
        </mxCell>
        <mxCell id="6XoJzIgcjdnXIeTt4XoX-12" value="w&lt;sub style=&quot;font-size: 24px;&quot;&gt;2&lt;/sub&gt;" style="rounded=0;whiteSpace=wrap;html=1;strokeWidth=5;fontSize=24;fontStyle=1;fillColor=#eeeeee;strokeColor=#36393d;" parent="1" vertex="1">
          <mxGeometry x="654" y="221" width="60" height="60" as="geometry" />
        </mxCell>
        <mxCell id="6XoJzIgcjdnXIeTt4XoX-13" value="w&lt;sub style=&quot;font-size: 24px;&quot;&gt;3&lt;/sub&gt;" style="rounded=0;whiteSpace=wrap;html=1;strokeWidth=5;fontSize=24;fontStyle=1;fillColor=#eeeeee;strokeColor=#36393d;" parent="1" vertex="1">
          <mxGeometry x="654" y="300" width="60" height="60" as="geometry" />
        </mxCell>
        <mxCell id="6XoJzIgcjdnXIeTt4XoX-18" style="edgeStyle=orthogonalEdgeStyle;rounded=0;orthogonalLoop=1;jettySize=auto;html=1;entryX=0.5;entryY=1;entryDx=0;entryDy=0;strokeWidth=5;fontSize=18;fontStyle=1" parent="1" source="6XoJzIgcjdnXIeTt4XoX-17" target="6XoJzIgcjdnXIeTt4XoX-1" edge="1">
          <mxGeometry relative="1" as="geometry" />
        </mxCell>
        <mxCell id="6XoJzIgcjdnXIeTt4XoX-17" value="bias" style="shape=parallelogram;perimeter=parallelogramPerimeter;whiteSpace=wrap;html=1;fixedSize=1;strokeWidth=5;fontSize=28;fontStyle=1;fillColor=#ffcc99;strokeColor=#36393d;" parent="1" vertex="1">
          <mxGeometry x="795" y="460" width="120" height="60" as="geometry" />
        </mxCell>
        <mxCell id="6XoJzIgcjdnXIeTt4XoX-22" value="..." style="text;html=1;align=center;verticalAlign=middle;whiteSpace=wrap;rounded=0;fontSize=70;rotation=90;" parent="1" vertex="1">
          <mxGeometry x="650" y="375" width="60" height="30" as="geometry" />
        </mxCell>
        <mxCell id="6XoJzIgcjdnXIeTt4XoX-24" value="&lt;font style=&quot;font-size: 28px;&quot;&gt;x&lt;sub&gt;1&lt;/sub&gt;&lt;/font&gt;" style="rounded=0;whiteSpace=wrap;html=1;fillColor=#d5e8d4;strokeColor=#82b366;strokeWidth=5;" parent="1" vertex="1">
          <mxGeometry x="380" y="265" width="60" height="60" as="geometry" />
        </mxCell>
        <mxCell id="6XoJzIgcjdnXIeTt4XoX-28" value="&lt;font style=&quot;font-size: 28px;&quot;&gt;x&lt;sub&gt;2&lt;/sub&gt;&lt;/font&gt;" style="rounded=0;whiteSpace=wrap;html=1;fillColor=#d5e8d4;strokeColor=#82b366;strokeWidth=5;" parent="1" vertex="1">
          <mxGeometry x="380" y="385" width="60" height="60" as="geometry" />
        </mxCell>
        <mxCell id="6XoJzIgcjdnXIeTt4XoX-30" value="&lt;font style=&quot;font-size: 28px;&quot;&gt;x&lt;sub&gt;3&lt;/sub&gt;&lt;/font&gt;" style="rounded=0;whiteSpace=wrap;html=1;fillColor=#d5e8d4;strokeColor=#82b366;strokeWidth=5;" parent="1" vertex="1">
          <mxGeometry x="380" y="545" width="60" height="60" as="geometry" />
        </mxCell>
        <mxCell id="6XoJzIgcjdnXIeTt4XoX-32" value="&lt;font style=&quot;font-size: 28px;&quot;&gt;x&lt;sub&gt;D&lt;/sub&gt;&lt;/font&gt;" style="rounded=0;whiteSpace=wrap;html=1;fillColor=#d5e8d4;strokeColor=#82b366;strokeWidth=5;" parent="1" vertex="1">
          <mxGeometry x="380" y="825" width="60" height="60" as="geometry" />
        </mxCell>
        <mxCell id="6XoJzIgcjdnXIeTt4XoX-16" value="w&lt;sub style=&quot;font-size: 24px;&quot;&gt;D&lt;/sub&gt;" style="rounded=0;whiteSpace=wrap;html=1;strokeWidth=5;fontSize=24;fontStyle=1;fillColor=#eeeeee;strokeColor=#36393d;" parent="1" vertex="1">
          <mxGeometry x="670" y="420" width="60" height="60" as="geometry" />
        </mxCell>
        <mxCell id="6XoJzIgcjdnXIeTt4XoX-59" style="edgeStyle=orthogonalEdgeStyle;rounded=0;orthogonalLoop=1;jettySize=auto;html=1;exitX=1;exitY=0.5;exitDx=0;exitDy=0;entryX=0;entryY=0.5;entryDx=0;entryDy=0;strokeWidth=5;endArrow=none;endFill=0;" parent="1" source="6XoJzIgcjdnXIeTt4XoX-60" target="6XoJzIgcjdnXIeTt4XoX-65" edge="1">
          <mxGeometry relative="1" as="geometry" />
        </mxCell>
        <mxCell id="6XoJzIgcjdnXIeTt4XoX-60" value="" style="ellipse;whiteSpace=wrap;html=1;aspect=fixed;strokeWidth=5;fontSize=18;fontStyle=1" parent="1" vertex="1">
          <mxGeometry x="740" y="695" width="190" height="190" as="geometry" />
        </mxCell>
        <mxCell id="6XoJzIgcjdnXIeTt4XoX-61" value="" style="endArrow=none;html=1;rounded=0;entryX=0;entryY=0;entryDx=0;entryDy=0;strokeWidth=5;fontSize=18;fontStyle=1" parent="1" target="6XoJzIgcjdnXIeTt4XoX-60" edge="1">
          <mxGeometry width="50" height="50" relative="1" as="geometry">
            <mxPoint x="690" y="650" as="sourcePoint" />
            <mxPoint x="900" y="850" as="targetPoint" />
          </mxGeometry>
        </mxCell>
        <mxCell id="6XoJzIgcjdnXIeTt4XoX-62" value="" style="endArrow=none;html=1;rounded=0;entryX=0.031;entryY=0.334;entryDx=0;entryDy=0;entryPerimeter=0;strokeWidth=5;fontSize=18;fontStyle=1" parent="1" edge="1">
          <mxGeometry width="50" height="50" relative="1" as="geometry">
            <mxPoint x="670" y="730" as="sourcePoint" />
            <mxPoint x="739.9999999999999" y="778.46" as="targetPoint" />
          </mxGeometry>
        </mxCell>
        <mxCell id="6XoJzIgcjdnXIeTt4XoX-63" value="" style="endArrow=none;html=1;rounded=0;entryX=0;entryY=1;entryDx=0;entryDy=0;strokeWidth=5;fontSize=18;fontStyle=1" parent="1" source="6XoJzIgcjdnXIeTt4XoX-74" target="6XoJzIgcjdnXIeTt4XoX-60" edge="1">
          <mxGeometry width="50" height="50" relative="1" as="geometry">
            <mxPoint x="530" y="1070" as="sourcePoint" />
            <mxPoint x="712" y="866" as="targetPoint" />
          </mxGeometry>
        </mxCell>
        <mxCell id="6XoJzIgcjdnXIeTt4XoX-64" value="" style="endArrow=none;html=1;rounded=0;entryX=0;entryY=0.5;entryDx=0;entryDy=0;strokeWidth=5;fontSize=24;fontStyle=1" parent="1" edge="1">
          <mxGeometry width="50" height="50" relative="1" as="geometry">
            <mxPoint x="660" y="810" as="sourcePoint" />
            <mxPoint x="740.0000000000005" y="799.09" as="targetPoint" />
          </mxGeometry>
        </mxCell>
        <mxCell id="6XoJzIgcjdnXIeTt4XoX-65" value="" style="rounded=1;whiteSpace=wrap;html=1;strokeWidth=5;fontSize=18;fontStyle=1;fillColor=#cdeb8b;strokeColor=#36393d;" parent="1" vertex="1">
          <mxGeometry x="990" y="735" width="70" height="110" as="geometry" />
        </mxCell>
        <mxCell id="6XoJzIgcjdnXIeTt4XoX-66" value="w&lt;sub style=&quot;font-size: 24px;&quot;&gt;1&lt;/sub&gt;" style="rounded=0;whiteSpace=wrap;html=1;strokeWidth=5;fontSize=24;fontStyle=1;fillColor=#eeeeee;strokeColor=#36393d;" parent="1" vertex="1">
          <mxGeometry x="660" y="620" width="60" height="60" as="geometry" />
        </mxCell>
        <mxCell id="6XoJzIgcjdnXIeTt4XoX-67" value="w&lt;sub style=&quot;font-size: 24px;&quot;&gt;2&lt;/sub&gt;" style="rounded=0;whiteSpace=wrap;html=1;strokeWidth=5;fontSize=24;fontStyle=1;fillColor=#eeeeee;strokeColor=#36393d;" parent="1" vertex="1">
          <mxGeometry x="634" y="701" width="60" height="60" as="geometry" />
        </mxCell>
        <mxCell id="6XoJzIgcjdnXIeTt4XoX-68" value="w&lt;sub style=&quot;font-size: 24px;&quot;&gt;3&lt;/sub&gt;" style="rounded=0;whiteSpace=wrap;html=1;strokeWidth=5;fontSize=24;fontStyle=1;fillColor=#eeeeee;strokeColor=#36393d;" parent="1" vertex="1">
          <mxGeometry x="634" y="780" width="60" height="60" as="geometry" />
        </mxCell>
        <mxCell id="6XoJzIgcjdnXIeTt4XoX-69" style="edgeStyle=orthogonalEdgeStyle;rounded=0;orthogonalLoop=1;jettySize=auto;html=1;entryX=0.5;entryY=1;entryDx=0;entryDy=0;strokeWidth=5;fontSize=18;fontStyle=1" parent="1" source="6XoJzIgcjdnXIeTt4XoX-70" target="6XoJzIgcjdnXIeTt4XoX-60" edge="1">
          <mxGeometry relative="1" as="geometry" />
        </mxCell>
        <mxCell id="6XoJzIgcjdnXIeTt4XoX-70" value="bias" style="shape=parallelogram;perimeter=parallelogramPerimeter;whiteSpace=wrap;html=1;fixedSize=1;strokeWidth=5;fontSize=28;fontStyle=1;fillColor=#ffcc99;strokeColor=#36393d;" parent="1" vertex="1">
          <mxGeometry x="775" y="940" width="120" height="60" as="geometry" />
        </mxCell>
        <mxCell id="6XoJzIgcjdnXIeTt4XoX-71" value="..." style="text;html=1;align=center;verticalAlign=middle;whiteSpace=wrap;rounded=0;fontSize=70;rotation=90;" parent="1" vertex="1">
          <mxGeometry x="650" y="855" width="60" height="30" as="geometry" />
        </mxCell>
        <mxCell id="6XoJzIgcjdnXIeTt4XoX-74" value="w&lt;sub style=&quot;font-size: 24px;&quot;&gt;D&lt;/sub&gt;" style="rounded=0;whiteSpace=wrap;html=1;strokeWidth=5;fontSize=24;fontStyle=1;fillColor=#eeeeee;strokeColor=#36393d;" parent="1" vertex="1">
          <mxGeometry x="650" y="900" width="60" height="60" as="geometry" />
        </mxCell>
        <mxCell id="6XoJzIgcjdnXIeTt4XoX-75" style="edgeStyle=orthogonalEdgeStyle;rounded=0;orthogonalLoop=1;jettySize=auto;html=1;exitX=1;exitY=0.5;exitDx=0;exitDy=0;entryX=0;entryY=0.5;entryDx=0;entryDy=0;strokeWidth=5;endArrow=none;endFill=0;" parent="1" source="6XoJzIgcjdnXIeTt4XoX-76" target="6XoJzIgcjdnXIeTt4XoX-81" edge="1">
          <mxGeometry relative="1" as="geometry" />
        </mxCell>
        <mxCell id="6XoJzIgcjdnXIeTt4XoX-76" value="" style="ellipse;whiteSpace=wrap;html=1;aspect=fixed;strokeWidth=5;fontSize=18;fontStyle=1" parent="1" vertex="1">
          <mxGeometry x="1200" y="440" width="190" height="190" as="geometry" />
        </mxCell>
        <mxCell id="6XoJzIgcjdnXIeTt4XoX-77" value="" style="endArrow=none;html=1;rounded=0;entryX=0;entryY=0;entryDx=0;entryDy=0;strokeWidth=5;fontSize=18;fontStyle=1;exitX=1;exitY=0.5;exitDx=0;exitDy=0;" parent="1" source="6XoJzIgcjdnXIeTt4XoX-8" target="6XoJzIgcjdnXIeTt4XoX-76" edge="1">
          <mxGeometry width="50" height="50" relative="1" as="geometry">
            <mxPoint x="1140" y="350" as="sourcePoint" />
            <mxPoint x="1420" y="610" as="targetPoint" />
          </mxGeometry>
        </mxCell>
        <mxCell id="6XoJzIgcjdnXIeTt4XoX-81" value="" style="rounded=1;whiteSpace=wrap;html=1;strokeWidth=5;fontSize=18;fontStyle=1;fillColor=#cdeb8b;strokeColor=#36393d;" parent="1" vertex="1">
          <mxGeometry x="1460" y="480" width="70" height="110" as="geometry" />
        </mxCell>
        <mxCell id="6XoJzIgcjdnXIeTt4XoX-82" value="w&lt;sub style=&quot;font-size: 24px;&quot;&gt;1&lt;/sub&gt;" style="rounded=0;whiteSpace=wrap;html=1;strokeWidth=5;fontSize=24;fontStyle=1;fillColor=#eeeeee;strokeColor=#36393d;" parent="1" vertex="1">
          <mxGeometry x="1130" y="360" width="60" height="60" as="geometry" />
        </mxCell>
        <mxCell id="6XoJzIgcjdnXIeTt4XoX-85" style="edgeStyle=orthogonalEdgeStyle;rounded=0;orthogonalLoop=1;jettySize=auto;html=1;entryX=0.5;entryY=1;entryDx=0;entryDy=0;strokeWidth=5;fontSize=18;fontStyle=1" parent="1" source="6XoJzIgcjdnXIeTt4XoX-86" target="6XoJzIgcjdnXIeTt4XoX-76" edge="1">
          <mxGeometry relative="1" as="geometry" />
        </mxCell>
        <mxCell id="6XoJzIgcjdnXIeTt4XoX-86" value="bias" style="shape=parallelogram;perimeter=parallelogramPerimeter;whiteSpace=wrap;html=1;fixedSize=1;strokeWidth=5;fontSize=28;fontStyle=1;fillColor=#ffcc99;strokeColor=#36393d;" parent="1" vertex="1">
          <mxGeometry x="1235" y="695" width="120" height="60" as="geometry" />
        </mxCell>
        <mxCell id="6XoJzIgcjdnXIeTt4XoX-88" value="" style="endArrow=none;html=1;rounded=0;entryX=1;entryY=0.5;entryDx=0;entryDy=0;strokeWidth=5;fontSize=18;fontStyle=1" parent="1" edge="1">
          <mxGeometry width="50" height="50" relative="1" as="geometry">
            <mxPoint x="1650" y="534.09" as="sourcePoint" />
            <mxPoint x="1530" y="534.09" as="targetPoint" />
          </mxGeometry>
        </mxCell>
        <mxCell id="6XoJzIgcjdnXIeTt4XoX-94" value="" style="endArrow=none;html=1;rounded=0;strokeWidth=5;fontSize=18;fontStyle=1;exitX=1;exitY=0.5;exitDx=0;exitDy=0;" parent="1" source="6XoJzIgcjdnXIeTt4XoX-65" target="6XoJzIgcjdnXIeTt4XoX-76" edge="1">
          <mxGeometry width="50" height="50" relative="1" as="geometry">
            <mxPoint x="1090" y="320" as="sourcePoint" />
            <mxPoint x="1238" y="478" as="targetPoint" />
          </mxGeometry>
        </mxCell>
        <mxCell id="6XoJzIgcjdnXIeTt4XoX-90" value="w&lt;sub style=&quot;font-size: 24px;&quot;&gt;D&lt;/sub&gt;" style="rounded=0;whiteSpace=wrap;html=1;strokeWidth=5;fontSize=24;fontStyle=1;fillColor=#eeeeee;strokeColor=#36393d;" parent="1" vertex="1">
          <mxGeometry x="1120" y="660" width="60" height="60" as="geometry" />
        </mxCell>
        <mxCell id="6XoJzIgcjdnXIeTt4XoX-95" value="" style="endArrow=classic;html=1;rounded=0;exitX=1;exitY=0.5;exitDx=0;exitDy=0;entryX=0;entryY=0.5;entryDx=0;entryDy=0;strokeWidth=4;" parent="1" source="6XoJzIgcjdnXIeTt4XoX-24" target="6XoJzIgcjdnXIeTt4XoX-10" edge="1">
          <mxGeometry width="50" height="50" relative="1" as="geometry">
            <mxPoint x="1090" y="600" as="sourcePoint" />
            <mxPoint x="1140" y="550" as="targetPoint" />
          </mxGeometry>
        </mxCell>
        <mxCell id="6XoJzIgcjdnXIeTt4XoX-96" value="" style="endArrow=classic;html=1;rounded=0;exitX=1;exitY=0.5;exitDx=0;exitDy=0;entryX=0;entryY=0.5;entryDx=0;entryDy=0;strokeWidth=4;" parent="1" source="6XoJzIgcjdnXIeTt4XoX-24" target="6XoJzIgcjdnXIeTt4XoX-66" edge="1">
          <mxGeometry width="50" height="50" relative="1" as="geometry">
            <mxPoint x="310" y="310" as="sourcePoint" />
            <mxPoint x="690" y="180" as="targetPoint" />
          </mxGeometry>
        </mxCell>
        <mxCell id="6XoJzIgcjdnXIeTt4XoX-97" value="" style="endArrow=classic;html=1;rounded=0;exitX=1;exitY=0.5;exitDx=0;exitDy=0;entryX=0;entryY=0.5;entryDx=0;entryDy=0;strokeWidth=4;" parent="1" source="6XoJzIgcjdnXIeTt4XoX-28" target="6XoJzIgcjdnXIeTt4XoX-12" edge="1">
          <mxGeometry width="50" height="50" relative="1" as="geometry">
            <mxPoint x="310" y="310" as="sourcePoint" />
            <mxPoint x="690" y="180" as="targetPoint" />
          </mxGeometry>
        </mxCell>
        <mxCell id="6XoJzIgcjdnXIeTt4XoX-98" value="" style="endArrow=classic;html=1;rounded=0;exitX=1;exitY=0.5;exitDx=0;exitDy=0;entryX=0;entryY=0.5;entryDx=0;entryDy=0;strokeWidth=4;" parent="1" source="6XoJzIgcjdnXIeTt4XoX-28" target="6XoJzIgcjdnXIeTt4XoX-67" edge="1">
          <mxGeometry width="50" height="50" relative="1" as="geometry">
            <mxPoint x="320" y="320" as="sourcePoint" />
            <mxPoint x="700" y="190" as="targetPoint" />
          </mxGeometry>
        </mxCell>
        <mxCell id="6XoJzIgcjdnXIeTt4XoX-99" value="" style="endArrow=classic;html=1;rounded=0;exitX=1;exitY=0.5;exitDx=0;exitDy=0;entryX=0;entryY=0.5;entryDx=0;entryDy=0;strokeWidth=4;" parent="1" source="6XoJzIgcjdnXIeTt4XoX-30" target="6XoJzIgcjdnXIeTt4XoX-68" edge="1">
          <mxGeometry width="50" height="50" relative="1" as="geometry">
            <mxPoint x="330" y="330" as="sourcePoint" />
            <mxPoint x="710" y="200" as="targetPoint" />
          </mxGeometry>
        </mxCell>
        <mxCell id="6XoJzIgcjdnXIeTt4XoX-100" value="" style="endArrow=classic;html=1;rounded=0;exitX=1;exitY=0.5;exitDx=0;exitDy=0;entryX=0;entryY=0.5;entryDx=0;entryDy=0;strokeWidth=4;" parent="1" source="6XoJzIgcjdnXIeTt4XoX-30" target="6XoJzIgcjdnXIeTt4XoX-13" edge="1">
          <mxGeometry width="50" height="50" relative="1" as="geometry">
            <mxPoint x="340" y="340" as="sourcePoint" />
            <mxPoint x="520" y="880" as="targetPoint" />
          </mxGeometry>
        </mxCell>
        <mxCell id="6XoJzIgcjdnXIeTt4XoX-101" value="" style="endArrow=classic;html=1;rounded=0;exitX=1;exitY=0.5;exitDx=0;exitDy=0;entryX=0;entryY=0.5;entryDx=0;entryDy=0;strokeWidth=4;" parent="1" source="6XoJzIgcjdnXIeTt4XoX-32" target="6XoJzIgcjdnXIeTt4XoX-74" edge="1">
          <mxGeometry width="50" height="50" relative="1" as="geometry">
            <mxPoint x="350" y="350" as="sourcePoint" />
            <mxPoint x="730" y="220" as="targetPoint" />
          </mxGeometry>
        </mxCell>
        <mxCell id="6XoJzIgcjdnXIeTt4XoX-102" value="" style="endArrow=classic;html=1;rounded=0;exitX=1;exitY=0.5;exitDx=0;exitDy=0;entryX=0;entryY=0.5;entryDx=0;entryDy=0;strokeWidth=4;" parent="1" source="6XoJzIgcjdnXIeTt4XoX-32" target="6XoJzIgcjdnXIeTt4XoX-16" edge="1">
          <mxGeometry width="50" height="50" relative="1" as="geometry">
            <mxPoint x="360" y="360" as="sourcePoint" />
            <mxPoint x="740" y="230" as="targetPoint" />
          </mxGeometry>
        </mxCell>
        <mxCell id="6XoJzIgcjdnXIeTt4XoX-103" value="..." style="text;html=1;align=center;verticalAlign=middle;whiteSpace=wrap;rounded=0;fontSize=70;rotation=90;strokeWidth=4;" parent="1" vertex="1">
          <mxGeometry x="400" y="690" width="60" height="30" as="geometry" />
        </mxCell>
      </root>
    </mxGraphModel>
  </diagram>
</mxfile>
